<svg width="25" height="24" viewBox="0 0 25 24" fill="none" xmlns="http://www.w3.org/2000/svg">
<g clip-path="url(#clip0)">
<path d="M23.4961 3.00029C22.5385 3.67577 21.4782 4.1924 20.3561 4.53029C19.7538 3.8378 18.9534 3.34698 18.0631 3.12422C17.1728 2.90145 16.2356 2.95749 15.3782 3.28474C14.5208 3.612 13.7845 4.19469 13.2691 4.95401C12.7536 5.71332 12.4838 6.61263 12.4961 7.53029V8.53029C10.7387 8.57586 8.99737 8.1861 7.4271 7.39574C5.85684 6.60537 4.50641 5.43893 3.49609 4.00029C3.49609 4.00029 -0.503906 13.0003 8.49609 17.0003C6.43662 18.3983 3.98325 19.0992 1.49609 19.0003C10.4961 24.0003 21.4961 19.0003 21.4961 7.50029C21.4952 7.22174 21.4684 6.94388 21.4161 6.67029C22.4367 5.66378 23.1569 4.393 23.4961 3.00029V3.00029Z" stroke="white" stroke-width="2" stroke-linecap="round" stroke-linejoin="round"/>
</g>
<defs>
<clipPath id="clip0">
<rect width="24" height="24" fill="white" transform="translate(0.496094)"/>
</clipPath>
</defs>
</svg>
